HIERARCHY
ROOT Hips
{
	OFFSET 0.00000 0.00000 0.00000
	CHANNELS 6 Xposition Yposition Zposition Zrotation Yrotation Xrotation 
	JOINT LHipJoint
	{
		OFFSET 0 0 0
		CHANNELS 3 Zrotation Yrotation Xrotation
		JOINT LeftUpLeg
		{
			OFFSET 1.36337 -1.57426 1.11036
			CHANNELS 3 Zrotation Yrotation Xrotation
			JOINT LeftLeg
			{
				OFFSET 2.38468 -6.55187 0.00000
				CHANNELS 3 Zrotation Yrotation Xrotation
				JOINT LeftFoot
				{
					OFFSET 2.37166 -6.51609 0.00000
					CHANNELS 3 Zrotation Yrotation Xrotation
					JOINT LeftToeBase
					{
						OFFSET 0.29078 -0.79891 2.01393
						CHANNELS 3 Zrotation Yrotation Xrotation
						End Site
						{
							OFFSET 0.00000 -0.00000 1.07924
						}
					}
				}
			}
		}
	}
	JOINT RHipJoint
	{
		OFFSET 0 0 0
		CHANNELS 3 Zrotation Yrotation Xrotation
		JOINT RightUpLeg
		{
			OFFSET -1.36349 -1.57426 1.11036
			CHANNELS 3 Zrotation Yrotation Xrotation
			JOINT RightLeg
			{
				OFFSET -2.29562 -6.30717 0.00000
				CHANNELS 3 Zrotation Yrotation Xrotation
				JOINT RightFoot
				{
					OFFSET -2.40985 -6.62100 0.00000
					CHANNELS 3 Zrotation Yrotation Xrotation
					JOINT RightToeBase
					{
						OFFSET -0.23197 -0.63733 1.92232
						CHANNELS 3 Zrotation Yrotation Xrotation
						End Site
						{
							OFFSET -0.00000 -0.00000 1.01562
						}
					}
				}
			}
		}
	}
	JOINT LowerBack
	{
		OFFSET 0 0 0
		CHANNELS 3 Zrotation Yrotation Xrotation
		JOINT Spine
		{
			OFFSET -0.08565 2.03602 -0.24562
			CHANNELS 3 Zrotation Yrotation Xrotation
			JOINT Spine1
			{
				OFFSET -0.00036 2.05693 0.00216
				CHANNELS 3 Zrotation Yrotation Xrotation
				JOINT Neck
				{
					OFFSET 0 0 0
					CHANNELS 3 Zrotation Yrotation Xrotation
					JOINT Neck1
					{
						OFFSET -0.03664 1.69515 0.31789
						CHANNELS 3 Zrotation Yrotation Xrotation
						JOINT Head
						{
							OFFSET 0.00932 1.70181 -0.46013
							CHANNELS 3 Zrotation Yrotation Xrotation
							End Site
							{
								OFFSET 0.01243 1.77620 -0.19377
							}
						}
					}
				}
				JOINT LeftShoulder
				{
					OFFSET 0 0 0
					CHANNELS 3 Zrotation Yrotation Xrotation
					JOINT LeftArm
					{
						OFFSET 3.74344 0.81315 -0.36647
						CHANNELS 3 Zrotation Yrotation Xrotation
						JOINT LeftForeArm
						{
							OFFSET 4.97185 -0.00000 -0.00000
							CHANNELS 3 Zrotation Yrotation Xrotation
							JOINT LeftHand
							{
								OFFSET 3.35811 -0.00000 0.00000
								CHANNELS 3 Zrotation Yrotation Xrotation
								JOINT LeftFingerBase
								{
									OFFSET 0 0 0
									CHANNELS 3 Zrotation Yrotation Xrotation
									JOINT LeftHandIndex1
									{
										OFFSET 0.62278 -0.00000 0.00000
										CHANNELS 3 Zrotation Yrotation Xrotation
										End Site
										{
											OFFSET 0.50210 -0.00000 0.00000
										}
									}
								}
								JOINT LThumb
								{
									OFFSET 0 0 0
									CHANNELS 3 Zrotation Yrotation Xrotation
									End Site
									{
										OFFSET 0.50976 -0.00000 0.50976
									}
								}
							}
						}
					}
				}
				JOINT RightShoulder
				{
					OFFSET 0 0 0
					CHANNELS 3 Zrotation Yrotation Xrotation
					JOINT RightArm
					{
						OFFSET -3.75385 0.50666 -0.06525
						CHANNELS 3 Zrotation Yrotation Xrotation
						JOINT RightForeArm
						{
							OFFSET -4.96493 -0.00000 -0.00000
							CHANNELS 3 Zrotation Yrotation Xrotation
							JOINT RightHand
							{
								OFFSET -3.34929 -0.00000 0.00000
								CHANNELS 3 Zrotation Yrotation Xrotation
								JOINT RightFingerBase
								{
									OFFSET 0 0 0
									CHANNELS 3 Zrotation Yrotation Xrotation
									JOINT RightHandIndex1
									{
										OFFSET -0.63804 -0.00000 0.00000
										CHANNELS 3 Zrotation Yrotation Xrotation
										End Site
										{
											OFFSET -0.51441 -0.00000 0.00000
										}
									}
								}
								JOINT RThumb
								{
									OFFSET 0 0 0
									CHANNELS 3 Zrotation Yrotation Xrotation
									End Site
									{
										OFFSET -0.52226 -0.00000 0.52226
									}
								}
							}
						}
					}
				}
			}
		}
	}
}
MOTION
Frames: 11
Frame Time: .0083333
-8.4463 1.646 1.0857 0 0 0 0 0 0 -21 0 0 0 0 0 0 0 0 0 0 0 0 0 0 21 0 0 0 0 0 0 0 0 0 0 0 0 0 0 0 0 0 0 0 0 0 0 -16 0 0 21 0 0 11 0 0 0 -8 0 0 0 0 0 0 0 0 0 0 0 0 0 0 0 0 0 0 0 0 8 0 0 0 0 0 0 0 0 0 0 0 0 0 0 0 0 0
-8.4463 1.6460 1.0857 33.0101 84.5104 134.3310 0.0000 0.0000 0.0000 -16.7883 2.5905 -23.9630 3.8976 12.0229 35.8130 0.4646 8.8607 -19.0214 1.4302 7.5618 21.3908 0.0000 0.0000 0.0000 16.9299 -10.6205 -21.8645 -2.0069 -8.8805 25.4221 -0.2157 -15.0394 -23.4690 -3.6671 -11.7037 34.6916 -0.2081 1.9233 -17.6545 -1.4595 2.8869 -3.0573 -0.7644 1.5061 6.6659 19.1795 21.0539 -7.2083 -16.2664 30.7893 24.7640 -3.3496 13.5576 15.6773 0.0000 0.0000 0.0000 -0.6369 -34.2750 -34.8096 142.0544 -46.8045 -103.0741 -0.0000 0.0000 -18.1705 15.2597 -22.5936 -5.9835 -7.1250 0.0000 -0.0000 -8.5634 6.8633 7.5658 0.0000 0.0000 0.0000 -1.6200 10.2718 -36.5243 -148.5819 42.0783 -107.6509 0.0000 -0.0000 -25.8530 -11.3976 -31.0547 5.9370 7.1250 -0.0000 -0.0000 23.2828 -60.0052 -8.8102
-8.4444 1.6453 1.0867 35.6735 84.8186 136.7400 0.0000 0.0000 0.0000 -16.3556 2.7789 -23.7828 3.9107 12.0405 35.8756 0.5018 8.7388 -19.3075 1.5782 7.9258 22.4890 0.0000 0.0000 0.0000 17.4099 -10.7943 -21.6053 -1.9727 -8.8090 25.1997 -0.2421 -15.5830 -24.3911 -2.7741 -10.3200 30.0194 0.3723 1.7372 -17.3051 -1.2278 2.5026 -3.0318 -0.9455 1.3239 6.5104 18.7461 21.3024 -6.9233 -16.2507 31.2142 24.6563 -3.2065 13.7228 15.5693 -0.0000 -0.0000 0.0000 -1.1007 -33.4813 -34.7954 142.1418 -46.7485 -103.1378 -0.0000 0.0000 -18.1998 15.1285 -22.6093 -5.9338 -7.1250 0.0000 -0.0000 -8.6463 6.8643 7.6406 -0.0000 -0.0000 0.0000 -1.6466 11.1689 -36.4146 -148.6055 42.0591 -107.6667 0.0000 -0.0000 -25.6470 -11.2332 -30.9837 5.8377 7.1250 -0.0000 -0.0000 23.3951 -59.9026 -8.7978
-8.4411 1.6448 1.0855 38.4488 85.0617 139.3590 0.0000 0.0000 0.0000 -15.9684 2.8871 -23.6649 3.9191 12.0520 35.9161 0.5381 8.5817 -19.5480 1.6779 8.1601 23.2016 0.0000 0.0000 0.0000 17.8422 -10.9860 -21.5333 -1.9665 -8.7960 25.1593 -0.2949 -15.9810 -25.3397 -1.9802 -8.8246 25.2482 0.8159 1.6642 -17.1047 -1.0616 2.3077 -3.0209 -1.0697 1.2337 6.4184 18.5684 21.3904 -6.6201 -16.4507 31.4111 24.4235 -3.2363 13.8082 15.4565 -0.0000 -0.0000 0.0000 -1.1837 -33.0613 -34.8039 142.1610 -46.7362 -103.1517 -0.0000 0.0000 -18.2087 15.1546 -22.5442 -5.9284 -7.1250 0.0000 -0.0000 -8.6266 6.9266 7.6123 -0.0000 -0.0000 0.0000 -1.7886 11.6132 -36.3446 -148.5292 42.1212 -107.6156 0.0000 -0.0000 -25.5741 -11.2953 -30.9402 5.8633 7.1250 -0.0000 -0.0000 23.2949 -59.8775 -8.7435
-8.4420 1.6458 1.0826 37.5592 84.9778 138.4740 0.0000 0.0000 0.0000 -16.1093 2.8934 -23.7026 3.9320 12.0693 35.9777 0.5588 8.5299 -19.7167 1.6984 8.2075 23.3460 0.0000 0.0000 0.0000 17.7632 -11.1422 -21.5674 -1.9574 -8.7768 25.0995 -0.3910 -16.1507 -26.3330 -1.3215 -7.2805 20.5491 0.7032 1.6556 -17.1122 -1.0730 2.3174 -3.0127 -1.0155 1.2362 6.4278 18.4997 21.3523 -6.4480 -16.5953 31.3531 24.1129 -3.3169 13.8007 15.2880 -0.0000 -0.0000 0.0000 -1.1194 -33.0990 -34.8200 142.1163 -46.7649 -103.1192 -0.0000 0.0000 -18.1632 15.2158 -22.5676 -5.9591 -7.1250 0.0000 -0.0000 -8.5895 6.8951 7.5840 -0.0000 -0.0000 0.0000 -1.8837 11.5942 -36.3610 -148.4855 42.1566 -107.5863 0.0000 -0.0000 -25.5818 -11.3573 -30.9787 5.9026 7.1250 -0.0000 -0.0000 23.2622 -59.9269 -8.7580
-8.4465 1.6433 1.0833 36.9661 84.9638 137.9430 0.0000 0.0000 0.0000 -16.1744 2.9417 -23.8510 3.9543 12.0994 36.0845 0.5449 8.6125 -19.6471 1.4049 7.4974 21.1977 0.0000 0.0000 0.0000 17.7639 -11.1814 -21.5988 -1.9478 -8.7564 25.0362 -0.5067 -16.3305 -27.4440 -0.8046 -5.7246 15.9874 0.6564 1.6575 -17.2058 -1.0919 2.3304 -3.0084 -1.0034 1.2422 6.4825 18.4586 21.3420 -6.2594 -16.7080 31.3083 23.7508 -3.3855 13.8066 15.0938 -0.0000 0.0000 0.0000 -1.2495 -33.1294 -34.6254 142.1642 -46.7341 -103.1541 -0.0000 0.0000 -17.6414 16.4193 -21.6967 -6.2174 -7.1250 0.0000 -0.0000 -7.7856 7.6220 6.7484 -0.0000 0.0000 0.0000 -1.9929 11.5250 -36.4444 -148.4582 42.1788 -107.5680 0.0000 -0.0000 -25.7535 -11.4228 -31.1313 5.9635 7.1250 -0.0000 -0.0000 23.3199 -60.0808 -8.8675
-8.4497 1.6383 1.0842 37.9791 84.9851 139.1360 0.0000 0.0000 0.0000 -16.1015 2.8794 -24.0968 3.9734 12.1250 36.1755 0.5330 8.6614 -19.5669 0.9147 6.0938 17.0568 0.0000 0.0000 0.0000 17.9752 -11.3733 -21.8585 -1.9445 -8.7496 25.0150 -0.6635 -16.9588 -29.2949 -0.1186 -2.2203 6.1149 0.7238 1.6590 -17.4841 -1.0851 2.3220 -3.0251 -1.0287 1.2408 6.6176 18.4905 21.3470 -6.1371 -16.8271 31.3278 23.6104 -3.4377 13.8244 15.0457 -0.0000 -0.0000 0.0000 -1.4395 -33.1845 -34.3427 142.2184 -46.6992 -103.1936 -0.0000 0.0000 -16.6921 18.6390 -19.8869 -6.5452 -7.1250 0.0000 -0.0000 -6.2644 9.1855 5.2162 -0.0000 -0.0000 0.0000 -2.2008 11.4052 -36.5733 -148.4318 42.2002 -107.5502 0.0000 -0.0000 -26.1708 -11.4849 -31.2093 6.0099 7.1250 -0.0000 -0.0000 23.3201 -60.1662 -8.9155
-8.4501 1.6357 1.0834 41.0467 85.1236 142.4360 0.0000 0.0000 0.0000 -15.7923 2.7574 -24.3915 3.9872 12.1433 36.2409 0.5483 8.6279 -19.6971 0.8320 5.8191 16.2605 0.0000 0.0000 0.0000 18.3973 -11.4409 -22.1494 -1.9450 -8.7505 25.0179 -0.6472 -17.0539 -29.2876 -0.1516 -2.5091 6.9148 1.0236 1.6862 -17.8343 -1.0266 2.2999 -3.0418 -1.1319 1.2378 6.7974 18.4484 21.3790 -6.1887 -16.7466 31.3785 23.7445 -3.3852 13.8364 15.0997 -0.0000 -0.0000 0.0000 -1.3372 -33.2501 -34.3609 142.1429 -46.7478 -103.1386 -0.0000 0.0000 -16.2340 19.7123 -18.9616 -6.6406 -7.1250 0.0000 -0.0000 -5.5130 10.0031 4.4930 -0.0000 -0.0000 0.0000 -2.3227 11.3341 -36.7467 -148.4601 42.1773 -107.5692 0.0000 -0.0000 -26.5481 -11.5190 -31.2047 6.0274 7.1250 -0.0000 -0.0000 23.2807 -60.1700 -8.9015
-8.4431 1.6364 1.0817 41.0684 85.0388 142.7100 0.0000 0.0000 0.0000 -15.8729 2.5543 -24.6562 3.9902 12.1474 36.2553 0.6635 8.4152 -20.6736 0.8778 5.9729 16.7059 0.0000 0.0000 0.0000 18.3643 -11.3577 -22.4499 -1.9507 -8.7627 25.0557 -0.6525 -17.1337 -29.4139 -0.1548 -2.5348 6.9861 0.9492 1.6640 -18.1069 -1.0304 2.2881 -3.0935 -1.0898 1.2324 6.8863 18.4275 21.3793 -6.1239 -16.8009 31.3948 23.7022 -3.4049 13.8448 15.0805 -0.0000 -0.0000 0.0000 -1.1927 -33.2608 -34.4156 142.0917 -46.7806 -103.1013 -0.0000 0.0000 -16.2771 19.7479 -18.8496 -6.6160 -7.1250 0.0000 -0.0000 -5.4828 10.1149 4.4557 -0.0000 -0.0000 0.0000 -2.3427 11.2840 -36.7855 -148.5010 42.1441 -107.5967 0.0000 -0.0000 -26.5590 -11.5973 -31.2525 6.0775 7.1250 -0.0000 -0.0000 23.2389 -60.2318 -8.9190
-8.4387 1.6382 1.0797 39.6526 84.7983 141.4260 0.0000 0.0000 0.0000 -16.1745 2.3858 -24.7583 3.9776 12.1306 36.1956 0.7294 8.3135 -21.2233 0.8887 6.0089 16.8103 0.0000 0.0000 0.0000 18.0915 -11.4209 -22.7021 -1.9675 -8.7980 25.1655 -0.6669 -17.0531 -29.4242 -0.1200 -2.2333 6.1509 0.6882 1.5939 -18.1888 -1.0923 2.2518 -3.1332 -1.0150 1.2103 6.8798 18.4120 21.4053 -6.1106 -16.8335 31.4447 23.6982 -3.4015 13.8629 15.0920 0.0000 0.0000 0.0000 -1.1295 -33.2093 -34.4052 142.0875 -46.7834 -103.0982 -0.0000 0.0000 -16.3605 19.7355 -18.7097 -6.5646 -7.1250 0.0000 -0.0000 -5.4823 10.2623 4.4388 0.0000 0.0000 0.0000 -2.3101 11.2703 -36.6864 -148.4901 42.1530 -107.5893 0.0000 -0.0000 -26.3240 -11.7258 -31.4012 6.1722 7.1250 -0.0000 -0.0000 23.2293 -60.3971 -9.0072
-8.4407 1.6392 1.0791 39.2722 84.7310 141.1020 0.0000 0.0000 0.0000 -16.2757 2.3820 -24.8271 3.9649 12.1135 36.1347 0.7127 8.4711 -21.1974 0.8106 5.7456 16.0481 0.0000 0.0000 0.0000 18.0343 -11.4432 -22.8411 -1.9850 -8.8348 25.2798 -0.6980 -16.9459 -29.5204 -0.1254 -2.2830 6.2885 0.6048 1.5518 -18.2133 -1.0913 2.2121 -3.1445 -0.9756 1.1891 6.8767 18.3290 21.4650 -6.2606 -16.7561 31.5359 23.8444 -3.3230 13.8808 15.1727 -0.0000 -0.0000 0.0000 -1.1732 -33.1371 -34.3797 142.0992 -46.7758 -103.1067 -0.0000 0.0000 -16.3684 19.8378 -18.6305 -6.5744 -7.1250 0.0000 -0.0000 -5.4109 10.3314 4.3728 -0.0000 -0.0000 0.0000 -2.3476 11.3598 -36.6300 -148.4264 42.2046 -107.5465 0.0000 -0.0000 -26.2016 -11.8459 -31.4824 6.2511 7.1250 -0.0000 -0.0000 23.1723 -60.4994 -9.0405
